<?xml version="1.0" encoding="UTF-8"?>
<svg id="a" xmlns="http://www.w3.org/2000/svg" version="1.1" viewBox="0 0 100 100">
  <defs>
    <style>
      .cls-1 {
        fill: #a8a8a7;
      }

      .cls-1, .cls-2, .cls-3, .cls-4, .cls-5, .cls-6, .cls-7 {
        stroke-width: 0px;
      }

      .cls-2 {
        fill: #34a853;
      }

      .cls-3 {
        fill: #4285f4;
      }

      .cls-4 {
        fill: #e94235;
      }

      .cls-5 {
        fill: #3c4043;
      }

      .cls-6 {
        fill: #fff;
      }

      .cls-7 {
        fill: #fabb05;
      }
    </style>
  </defs>
  <rect class="cls-6" y="0" width="100" height="100" rx="10" ry="10"/>
  <path class="cls-1" d="M89.7,1.1c5.2,0,9.4,4.2,9.4,9.4v79.3c0,5.2-4.2,9.4-9.4,9.4H10.4c-5.2,0-9.4-4.2-9.4-9.4V10.5c0-5.2,4.2-9.4,9.4-9.4h79.3M89.7,0H10.4C4.7.1,0,4.7,0,10.5v79.3c0,5.7,4.7,10.3,10.4,10.4h79.3c5.7,0,10.3-4.7,10.4-10.4V10.5c0-5.7-4.7-10.3-10.4-10.4Z"/>
  <g id="b">
    <g id="c">
      <path id="d" class="cls-5" d="M47.4,49.6v8.9h-2.8v-22.1h7.5c1.9,0,3.5.6,4.9,1.9,1.4,1.3,2,2.8,2,4.7s-.7,3.4-2,4.7c-1.3,1.3-2.9,1.9-4.9,1.9h-4.7ZM47.4,39.2v7.7h4.7c1.1,0,2.1-.4,2.8-1.1.8-.8,1.1-1.7,1.1-2.7s-.4-1.9-1.1-2.7c-.7-.8-1.7-1.2-2.8-1.2h-4.7Z"/>
      <path id="e" class="cls-5" d="M66.4,42.9c2.1,0,3.8.6,5,1.7s1.8,2.7,1.8,4.6v9.3h-2.7v-2.1h-.1c-1.2,1.7-2.7,2.6-4.7,2.6s-3.1-.5-4.2-1.5-1.7-2.2-1.7-3.7.6-2.8,1.8-3.7c1.2-.9,2.8-1.4,4.7-1.4s3.1.3,4.2.9v-.7c0-1-.4-1.8-1.2-2.5-.8-.7-1.7-1-2.8-1-1.6,0-2.8.7-3.8,2l-2.5-1.6c1.4-2,3.4-3,6.1-3h0ZM62.8,53.9c0,.7.3,1.4,1,1.8.6.5,1.4.7,2.2.7,1.2,0,2.3-.4,3.2-1.3s1.4-1.9,1.4-3.1c-.9-.7-2.1-1-3.7-1s-2.1.3-2.9.8c-.8.6-1.2,1.3-1.2,2.1Z"/>
      <path id="f" class="cls-5" d="M88.6,43.4l-9.4,21.7h-2.9l3.5-7.6-6.2-14.1h3.1l4.5,10.8h0l4.4-10.8h3.1,0Z"/>
    </g>
    <g id="g">
      <path id="h" class="cls-3" d="M36.2,47.8c0-.9,0-1.8-.2-2.7h-11.9v4.9h6.9c-.3,1.6-1.2,3-2.5,3.9v3.2h4.1c2.4-2.2,3.7-5.5,3.7-9.3h0Z"/>
      <path id="i" class="cls-2" d="M28.3,53.9c-1.1.8-2.6,1.2-4.3,1.2-3.3,0-6.1-2.2-7.1-5.2h-4.2v3.3c2.1,4.1,6.4,7,11.3,7s6.3-1.1,8.4-3.1l-4.1-3.2h0Z"/>
      <path id="j" class="cls-7" d="M16.5,47.5c0-.8.1-1.7.4-2.4v-3.3h-4.2c-.9,1.7-1.4,3.6-1.4,5.7s.5,4,1.4,5.7l4.2-3.3c-.3-.8-.4-1.6-.4-2.4Z"/>
      <path id="k" class="cls-4" d="M24,39.8c1.9,0,3.5.6,4.9,1.9l3.6-3.6c-2.2-2-5-3.3-8.5-3.3-4.9,0-9.2,2.8-11.3,7l4.2,3.3c1-3,3.8-5.2,7.1-5.2h0Z"/>
    </g>
  </g>
</svg>