<svg width="20" height="16" viewBox="0 0 20 16" fill="none" xmlns="http://www.w3.org/2000/svg">
<path d="M2 9.99144L13.32 9.99144L10.82 12.6114C10.454 12.996 10.2558 13.5102 10.2689 14.0409C10.282 14.5717 10.5054 15.0754 10.89 15.4414C11.2746 15.8074 11.7888 16.0057 12.3195 15.9926C12.8502 15.9794 13.354 15.756 13.72 15.3714L19.44 9.37143C19.5068 9.28965 19.567 9.20272 19.62 9.11144C19.7123 8.99676 19.7865 8.8686 19.84 8.73144C19.9103 8.55257 19.9508 8.3634 19.96 8.17144L20 7.99146C19.9968 7.73006 19.9425 7.47186 19.84 7.23146C19.7425 6.99306 19.5999 6.77576 19.42 6.59146L13.42 0.591464C13.2341 0.403964 13.0129 0.255162 12.7691 0.153662C12.5254 0.0521624 12.264 -0.000136653 12 -0.00013663C11.736 -0.000136607 11.4746 0.0521625 11.2308 0.153662C10.9871 0.255163 10.7659 0.403964 10.58 0.591464C10.3925 0.777364 10.2438 0.998563 10.1422 1.24226C10.0407 1.48596 9.9884 1.74746 9.9884 2.01146C9.9884 2.27546 10.0407 2.53686 10.1422 2.78056C10.2438 3.02426 10.3925 3.24546 10.58 3.43146L13.18 5.99146L2 5.99146C1.4696 5.99146 0.960899 6.20216 0.585799 6.57726C0.210699 6.95226 -7.45909e-07 7.46096 -6.99531e-07 7.99146C-6.53161e-07 8.52187 0.2107 9.03058 0.5858 9.40565C0.9609 9.78072 1.4696 9.99144 2 9.99144Z" fill="#E84E89"/>
</svg>
