<svg width="86" height="107" viewBox="0 0 86 107" fill="none" xmlns="http://www.w3.org/2000/svg">
    <path
        d="M34.3719 32.6236C34.7567 31.2829 35.1415 30.0061 35.4622 28.7292C36.2317 25.8563 37.0013 23.0473 38.0915 20.3659C39.4383 16.9184 41.2981 13.5986 43.2862 10.4703C44.5047 8.49118 46.1721 6.63975 47.9036 4.97984C54.1885 -0.829822 61.9484 -1.53209 69.2593 2.93688C72.9789 5.23521 75.8649 8.29965 78.1736 11.9387C81.316 16.8545 83.1758 22.2812 84.3302 27.9631C85.9976 36.3265 86.2541 44.7537 85.8052 53.1809C85.4845 58.6714 84.8432 64.2257 84.2019 69.7161C84.0095 71.2483 83.4323 72.7806 82.5986 74.0574C81.5725 75.7173 79.9692 76.8026 77.8529 76.4196C75.8649 76.1004 74.6464 74.632 74.2616 72.8444C73.9409 71.1845 73.8768 69.3969 74.0692 67.737C75.2235 58.7991 75.8648 49.8611 75.4159 40.8593C75.1594 35.7519 74.5181 30.7084 73.1072 25.7925C72.017 22.1535 70.6702 18.706 68.1691 15.7692C66.8223 14.1732 65.2832 12.7048 63.5516 11.5556C60.5375 9.5765 57.7798 9.83187 55.1505 12.3217C53.483 13.9178 52.008 15.7692 50.7895 17.6845C46.0438 25.6648 44.1199 34.2197 45.146 43.413C45.146 43.5407 45.2101 43.7322 45.2101 43.8599C45.3384 44.9452 45.4666 46.0944 45.4025 47.1797C45.3384 49.5419 44.2481 51.3295 42.0036 52.2871C39.9514 53.1171 37.5785 52.4786 35.9111 50.5634C35.2698 49.8611 34.6926 49.0312 34.1795 48.2012C34.1154 48.0735 33.9871 47.9458 33.923 47.8181C31.5502 44.3068 28.7284 41.2424 25.3294 38.6887C22.3794 36.518 19.1728 34.922 15.5173 34.5389C11.2847 34.092 8.8477 35.9434 8.59117 40.2209C8.46291 42.2 8.6553 44.3068 9.23248 46.1582C10.0662 48.8396 11.1564 51.5849 12.6314 53.947C14.5554 56.9476 16.6717 59.9482 19.1728 62.4381C27.6382 71.0568 37.4502 77.6326 48.9939 81.527C50.8537 82.1654 52.6493 82.9315 54.3809 83.8253C54.8298 84.0168 55.3429 84.6553 55.3429 85.166C55.3429 86.0598 54.5091 86.1236 53.8037 86.1236C50.3406 86.2513 46.8775 85.6767 43.6068 84.5914C29.9469 80.1863 18.6598 72.2698 9.42488 61.4166C5.64114 56.9476 2.88349 51.9041 1.40847 46.2221C0.446506 42.3915 0.125849 38.561 1.40847 34.7304C3.07589 29.8784 6.47484 26.8778 11.4771 25.7286C16.0945 24.6433 20.6478 25.4094 24.9446 27.197C26.8686 28.027 28.6643 29.0485 30.4599 30.1338C31.1654 30.5807 31.8708 30.9637 32.6404 31.3468C33.0893 31.6022 33.4741 31.8575 33.8589 32.1129C34.0513 32.3683 34.1795 32.496 34.3719 32.6236Z"
            fill="#262642"
    />
    <path
        d="M5.51468 83.6987C17.892 95.9565 33.0911 102.788 49.9576 106.235C55.8577 107.193 61.8219 107.193 67.722 106.682C69.5177 106.554 71.2492 106.044 72.7884 105.022C76.0591 102.788 75.9308 100.489 72.5318 98.574C70.4796 97.4248 68.235 97.2972 65.9905 97.1695C59.3849 96.9141 52.7794 96.5949 46.3663 94.8712C44.763 94.4243 43.0956 93.9773 41.4923 93.4666C40.7227 93.2751 39.9532 93.0197 39.2477 92.8282C28.0248 89.6361 17.2507 85.3586 7.50275 78.8467C6.34839 78.0806 5.1299 77.3783 3.84727 76.676C3.52662 76.4845 3.14183 76.293 2.82117 76.1015C2.37225 75.8461 1.8592 75.5907 1.41028 75.463C0.384184 75.2077 -0.257128 75.9099 0.0635281 76.8676C0.255922 77.3783 0.512447 77.8252 0.833103 78.2083C1.21789 78.6552 1.60268 79.1659 1.98747 79.6766C3.14183 81.0812 4.29619 82.4219 5.51468 83.6987Z"
            fill="#262642"
    />
</svg>
